<?xml version="1.0" encoding="utf-8"?>
<!-- Generator: Adobe Illustrator 23.0.6, SVG Export Plug-In . SVG Version: 6.00 Build 0)  -->
<svg version="1.1" xmlns="http://www.w3.org/2000/svg" xmlns:xlink="http://www.w3.org/1999/xlink" x="0px" y="0px"
	 viewBox="0 0 339.7 336.8" style="enable-background:new 0 0 339.7 336.8;" xml:space="preserve">
<style type="text/css">
	.st0{fill:#BEE2F9;}
	.st1{fill:#5068AF;}
	.st2{fill:none;stroke:#253368;stroke-width:6;stroke-miterlimit:10;}
</style>
<g id="русло">
	<circle cx="171.3" cy="168.4" r="167.9"/>
	<path class="st0" d="M320.3,223.2c4-0.3,7.3-0.2,9.6,0c3.9-11.2,6-21.2,7.2-29.1c0.9-5.5,1.8-13.2,2-22.5c0.1-5.9-0.1-10-0.4-15.7
		c-0.8-14.2-2.1-19.4-3.4-23.2c-1.7-4.9-3.5-9.8-7.1-10.6c-1-0.2-1.4-0.1-9.1,4.1c-2.8,1.5-6.8,3.5-12.4,6.1
		c-3.7,1.7-6,2.5-35.6,11.9c-19.8,6.2-22.2,6.9-26.5,7.9c-12.2,2.7-21.7,3.6-26.5,4c-12.3,0.9-18.6,1.3-27.1-0.6
		c-7.7-1.7-12.8-4.4-22.6-9.6c-11-5.8-11.1-7.2-23.1-14.1c-11.3-6.4-20.5-10.4-27.7-13.5c-12-5.2-18-7.8-24.3-9
		c-12.4-2.5-22.8-1.1-31,0c-12.6,1.7-14.7,3.8-26.5,5.1c-4.7,0.5-8.3,0.4-11,0.2c-6.7-0.6-7.5-1.8-9.9-1c-4.1,1.4-6.1,7.2-6.9,9.9
		c-2,6.8-2.6,12.6-3.3,19.5c-0.9,9.7-1.3,14.8-1.4,22.4c-0.1,3.8,0,6.7,0.2,12.5c0.6,23,0.9,13.8,1.9,23.5c0.6,5.5,1,8.4,3.4,10.3
		c1.5,1.2,2.5,1,9.9,1.4c9.6,0.6,11.1,1.2,16,0.7c2.8-0.3,2.6-0.5,5.7-0.7c4.9-0.4,8.4-0.1,11.4,0c7.2,0.4,11.1,0,14.4,0
		c10.8,0.1,24.8,4.8,56.4,15.8c11,3.8,13.1,5,25.4,9c12.7,4.1,22.1,6.7,31,9c17.2,4.6,25.9,6.9,33.3,7.3c11.9,0.8,20.9-0.9,28.2-2.3
		c24.5-4.6,44.4-15.1,46.8-16.4C297.5,230.3,306.2,224.4,320.3,223.2z"/>
	<path class="st0" d="M14,124.7"/>
</g>
<g id="перекаты">
	<path class="st1" d="M11.1,195.6c-3.8-3.1-4.1-12.8-4.6-32.2c-0.2-9.6,1.8-15.2,4.6-26c2.5-9.6,3.9-11.8,5.9-13.2
		c4-2.8,7.2,1,21.7,1.8c4.5,0.2,2.7-0.2,11.4,0c5.1,0.1,7.7,0.3,11-1.1c2.6-1.1,2.3-1.8,4.7-2.8c3.1-1.3,5.4-0.9,12.1-0.4
		c9.4,0.7,8.4,0.2,10.7,0.7c4.9,1.1,4.8,2.5,11.8,5.3c4.9,2,5.3,1.5,13.9,4.6c3.8,1.4,5.8,2.1,7.8,3.2c3,1.6,5.5,3.4,9.6,6.9
		c5.3,4.6,8.6,8.1,10.2,9.6c13.2,12.3,27.6,11.3,27.7,15.8c0,3.4-8,6.1-15.2,8.5c-11.9,4-15.9,2.4-24.3,6.2
		c-7.8,3.5-7.5,6.3-14.1,10.2c-7.2,4.3-12.7,4-41.8,3.4c-22.3-0.4-33.4-0.7-35-0.6C21.2,196.8,16.1,199.6,11.1,195.6z"/>
	<path class="st1" d="M165.5,228.7c-0.3-2.5,5.8-5,11.3-7.3c11.4-4.8,14.6-3.4,24.3-7.3c6.6-2.7,5.5-3.6,16.4-9
		c7.3-3.7,10.3-4.6,18.1-7.9c15.4-6.7,15.3-8.2,27.7-13.5c13.2-5.7,13.1-3.8,29.3-10.2c20-7.8,24.1-12.2,28.8-9.6
		c3.2,1.8,4,11.4,5.6,30.5c1.1,12.7,0.8,14.6-0.4,16.8c-3.6,6.3-10.3,5.3-27.9,10.8c-18.8,5.9-17.2,8.9-31.4,11.8
		c-8.9,1.8-13.1,1.4-24.4,4.6c-5.6,1.6-7.4,2.5-12.4,3.4c-6.7,1.2-13.3,2.4-20.3,0c-7.9-2.7-7.4-6.9-14.7-8.5
		c-6-1.3-7.4,1.3-15.8,0.6C174.4,233.3,165.8,231.6,165.5,228.7z"/>
</g>
<g id="граница">
	<path class="st2" d="M13.1,111.9c4,1.1,10.2,2.5,17.8,2.7c15,0.4,19.8-4.3,36.2-6c5-0.5,16.5-1.6,30.3,1.6
		c8,1.9,14.9,5.2,28.5,11.7c6.5,3.1,14.3,6.9,24.2,12.7c9.2,5.5,13.2,8.6,24,14.2c6.3,3.3,10.8,5.3,16.8,6.6
		c5.2,1.1,9.5,1.2,13.1,1.3c5.8,0.2,10-0.3,16.7-1c5.3-0.6,11.6-1.2,19.4-2.8c7.4-1.5,12.7-3.1,19.5-5.2c21.2-6.6,31.7-9.9,37-11.7
		c10-3.6,22.2-8.3,35.9-14.3"/>
	<path class="st2" d="M9.8,214.5c6-0.3,14.6-0.6,25.1-0.8c23-0.4,34.7-0.6,44.5,1.2c9.7,1.8,18.1,4.9,35,11.1
		c5,1.8,15.4,5.8,29.1,10.4c3.2,1.1,6,2,8.9,2.9c4.3,1.4,10.2,3.1,20.4,5.9c9.9,2.7,14.9,4.1,18.7,5c10.3,2.3,18.3,4.1,28.4,4.3
		c11.7,0.2,20.3-2,29.9-4.5c12.3-3.1,21.4-6.9,28.1-9.7c17.4-7.3,22.2-11.8,35.8-14.9c6.9-1.6,12.6-2,16.2-2.2"/>
</g>
</svg>
